<?xml version="1.0" standalone="no"?>
<!DOCTYPE svg PUBLIC "-//W3C//DTD SVG 20010904//EN"
 "http://www.w3.org/TR/2001/REC-SVG-20010904/DTD/svg10.dtd">
<svg version="1.0" xmlns="http://www.w3.org/2000/svg"
 width="20.000000pt" height="20.000000pt" viewBox="0 0 20.000000 20.000000"
 preserveAspectRatio="xMidYMid meet">

<g transform="translate(0.000000,20.000000) scale(0.100000,-0.100000)"
fill="#000000" stroke="none">
<path d="M80 178 c0 -7 -12 -22 -27 -34 -54 -43 -24 -134 44 -134 61 0 91 46
72 110 -8 27 -16 37 -26 33 -9 -4 -16 2 -20 16 -6 22 -43 30 -43 9z m32 -120
l-5 -33 -9 33 c-5 18 -15 35 -23 39 -8 3 -15 9 -15 13 0 5 13 2 28 -6 25 -12
28 -18 24 -46z"/>
</g>
</svg>
